<?xml version="1.0" encoding="UTF-8"?><svg id="_图层_1" xmlns="http://www.w3.org/2000/svg" viewBox="0 0 500 500"><text transform="translate(208.72 155.51)" style="font-family:AdobeSongStd-Light-GBpc-EUC-H, &apos;Adobe Song Std&apos;; font-size:14.25px; font-weight:300;"><tspan x="0" y="0"></tspan></text><path d="m190,144c-22.77,0-41.25,18.48-41.25,41.25v110c0,20.62,15.13,37.68,34.85,40.78l-19.77,19.77c-3.01,3.01-.86,8.21,3.39,8.21h17.06c3.65,0,7.13-1.46,9.71-4.04l23.5-23.46h55l23.46,23.46c2.58,2.58,6.06,4.04,9.71,4.04h17.1c4.3,0,6.45-5.2,3.39-8.21l-19.77-19.77c19.77-3.05,34.85-20.15,34.85-40.78v-110c0-22.77-18.48-41.25-41.25-41.25h-110Zm-13.75,41.25c0-7.61,6.14-13.75,13.75-13.75h110c7.61,0,13.75,6.14,13.75,13.75v41.25c0,7.61-6.14,13.75-13.75,13.75h-110c-7.61,0-13.75-6.14-13.75-13.75v-41.25Zm68.75,82.5c11.39,0,20.62,9.23,20.62,20.63s-9.23,20.62-20.62,20.62-20.62-9.23-20.62-20.62,9.23-20.63,20.62-20.63Z" style="fill:gray;"/><path d="m12.14,17h15.62v104.77h53.57v12.65H12.14V17Z" style="fill:#29abe2;"/><path d="m98.77,20.07c0-5.78,4.64-9.51,10.62-9.51s10.63,3.73,10.63,9.51-4.64,9.51-10.63,9.51-10.62-3.95-10.62-9.51Zm2.82,27.38h15.38v86.96h-15.38V47.45Z" style="fill:#29abe2;"/><path d="m150.28,107.52v-48.09h-13.52v-11.14l14.21-.85,1.85-24.39h12.85v24.39h24.63v11.99h-24.63v48.34c0,10.63,3.58,16.79,14.06,16.79,3.23,0,7.4-1.17,10.36-2.34l2.97,11.1c-5.1,1.66-11.19,3.22-16.87,3.22-19.35,0-25.9-11.73-25.9-29.03Z" style="fill:#29abe2;"/><path d="m209.75,107.52v-48.09h-13.52v-11.14l14.21-.85,1.85-24.39h12.85v24.39h24.63v11.99h-24.63v48.34c0,10.63,3.58,16.79,14.06,16.79,3.23,0,7.4-1.17,10.36-2.34l2.97,11.1c-5.1,1.66-11.19,3.22-16.87,3.22-19.35,0-25.9-11.73-25.9-29.03Z" style="fill:#29abe2;"/><path d="m270.26,116.94V6.96h15.38v111.06c0,4.5,2.05,6.29,4.29,6.29.89,0,1.63,0,3.37-.36l2.08,11.23c-2.18.75-4.82,1.37-8.85,1.37-11.53,0-16.27-7.04-16.27-19.61Z" style="fill:#29abe2;"/><path d="m311.2,91.04c0-28.3,19.94-45.74,40.86-45.74,23.19,0,36.28,15.93,36.28,40.81,0,3.11-.28,6.21-.72,8.36h-61.22c1.1,18.42,12.88,30.37,30.2,30.37,8.72,0,15.89-2.69,22.62-6.95l5.51,9.65c-7.97,4.99-17.65,9.02-30.02,9.02-24.23,0-43.52-16.95-43.52-45.51Zm63.55-7.12c0-17.43-8.19-26.9-22.41-26.9-12.78,0-24.2,9.81-26.07,26.9h48.48Z" style="fill:#29abe2;"/><path d="m150.03,383.89h-37.64v-12.65h91.11v12.65h-37.64v104.77h-15.83v-104.77Z" style="fill:#ed1c24;"/><path d="m215.56,401.7h12.88l1.32,15.84h.52c6.42-11.03,15.83-17.98,26.2-17.98,4.08,0,6.94.49,9.84,1.79l-2.91,12.91c-3.17-.94-5.25-1.43-8.94-1.43-7.78,0-17.08,5.29-23.31,20v55.84h-15.59v-86.96Z" style="fill:#ed1c24;"/><path d="m271.08,466.08c0-18.94,17.32-28.42,56.6-32.45-.04-11.19-3.97-21.96-19.02-21.96-10.66,0-20.26,4.77-27.48,9.32l-6.1-10.09c8.48-5.25,21.41-11.35,36.2-11.35,22.49,0,32,14.11,32,35.76v53.35h-12.88l-1.32-10.4h-.52c-8.78,6.89-19.04,12.54-30.47,12.54-15.42,0-27-9.04-27-24.72Zm56.6,1.36v-24.15c-30.88,3.5-41.32,10.64-41.32,21.76,0,9.88,7.11,13.9,16.15,13.9s16.25-4.09,25.17-11.51Z" style="fill:#ed1c24;"/><path d="m369.48,374.32c0-5.78,4.71-9.5,10.77-9.5s10.77,3.73,10.77,9.5-4.71,9.51-10.77,9.51-10.77-3.95-10.77-9.51Zm2.85,27.38h15.59v86.96h-15.59v-86.96Z" style="fill:#ed1c24;"/><path d="m418.97,401.7h12.88l1.32,12.54h.52c8.78-8.15,18.26-14.69,30.91-14.69,19.42,0,28.14,11.82,28.14,34.01v55.1h-15.59v-53.2c0-16.2-5.19-23.13-17.39-23.13-9.42,0-15.95,4.54-25.19,13.36v62.97h-15.59v-86.96Z" style="fill:#ed1c24;"/></svg>