<?xml version="1.0" encoding="UTF-8"?>
<svg id="_图层_1" data-name="图层 1" xmlns="http://www.w3.org/2000/svg" viewBox="0 0 1000 1000">
  <defs>
    <style>
      .cls-1 {
        fill: #fff;
        opacity: 0;
      }

      .cls-2 {
        fill: #ffee02;
      }

      .cls-3 {
        fill: #fdeca6;
      }

      .cls-4 {
        fill: #ffeb04;
      }

      .cls-5 {
        fill: #ffcf11;
      }

      .cls-6 {
        fill: #fde8a2;
      }

      .cls-7 {
        fill: #fff200;
      }

      .cls-8 {
        fill: #ff7f27;
      }

      .cls-9 {
        fill: #ff822b;
      }
    </style>
  </defs>
  <g>
    <path class="cls-8" d="m915.46,454.6c-8.17,24.63-22.39,45.5-40.14,64.16,0,.54,0,1.07,0,1.61,12.35,13.96,25.12,27.57,36.93,41.97,13.28,16.18,19.55,36.15,27.15,55.21,5.96,14.94,11.12,30.33,15.02,45.92,2.3,9.18,1.98,19.17,1.61,28.75-.09,2.37-4.92,6.27-7.67,6.36-2.82.09-6.38-3.15-8.46-5.83-1.51-1.93-1.89-5.45-1.47-8.05,3.4-21.1-4.49-40.21-11.48-59.03-6.49-17.47-15.25-34.18-23.98-50.71-8.62-16.34-23.21-27.85-36.11-40.62-1.06-1.05-4.88-.89-6.21.19-4.14,3.34-7.95,7.18-11.45,11.22-10.59,12.23-23.42,20.7-38.55,26.83-16.8,6.81-32.54,16.21-49.13,23.59-28.77,12.81-57.99,24.59-86.72,37.47-16.74,7.5-33.74,4.5-50.89,3.85-14.78-.56-29.6-.03-44.41-.08-4.02-.01-4.24,2.18-4.08,5.41,1.3,26.03,2.63,52.06,3.6,78.1.83,22.37,1.31,44.76,1.67,67.14.08,5.25,2.75,5.27,6.79,5.38,12.32.36,24.66.88,36.93,1.96,8.12.71,13.32,6.7,11.93,12.42-1.68,6.91-8.02,9.5-16.18,8.47-14.53-1.84-29.17-2.76-43.78-3.95-1.39-.11-2.91.42-4.26.92-11.8,4.41-16.64-3.58-16.23-12.36,1.29-27.67,2.21-55.35,3.28-83.02.15-3.81.62-7.63.48-11.43-.81-21.95-1.67-43.9-2.84-65.83-.08-1.54-2.7-3.04-4.29-4.36-.46-.39-1.49-.18-2.25-.12-19.35,1.58-38.23-2.87-57.34-4.38-33.26-2.63-66.58-4.46-99.88-6.68-1.7-.11-3.35-.79-5.05-1.08-7.81-1.35-10.15,0-9.93,8.14.56,20.88-4.43,40.8-9.1,60.86-1.02,4.36.03,9.16-.39,13.7-1.87,20.53-4.01,41.03-5.85,61.56-.74,8.28-.81,16.62-1.52,24.91-.39,4.59.9,5.85,5.51,4.74,15.83-3.82,32.02-4.56,48.02-2.37,12.48,1.71,16.03,8.96,13.56,19.99-1.56,6.96-10.58,10.28-15.54,5.34-7.15-7.12-15.18-5.53-23.42-5.06-13.89.78-27.77,1.63-41.66,2.37-5.72.31-10.32-2.34-11.71-7.61-.77-2.94,1.18-6.77,2.42-10.01,1.05-2.76,3.89-5.14,4.13-7.85,1.84-20.8,2.72-41.69,4.92-62.44,2.17-20.46,5.71-40.78,8.33-61.2,1.94-15.16,3.44-30.38,4.88-45.6.09-.98-1.96-3.05-3.14-3.14-17.81-1.36-35.69-3.93-53.44-3.28-21.5.8-42.08-3.69-62.93-6.87-17.28-2.63-34.6-5.31-51.66-9.08-17.45-3.85-34.79-8.47-51.83-13.86-11.19-3.54-22.2-8.54-29.65-18.3-2.69-3.52-5.39-8.23-5.4-12.41-.08-28.99.56-57.97.97-86.96.01-1.02.3-2.08.08-3.04-.67-2.89-1.53-5.74-2.31-8.61-2.82,1.31-6.21,2.01-8.38,4.02-12.51,11.58-26.53,22.16-36.5,35.67-8.17,11.08-11.4,25.79-16.83,38.88-2.09,5.04-4.13,10.1-6.33,15.09-2.16,4.89-4.61,9.19-3.41,15.39.58,3.02-4.09,9.22-7.48,10.2-3.21.93-9.35-2.07-11.47-5.19-2.18-3.22-2.43-9.11-1.15-13.07,5.98-18.58,12.47-37.02,19.47-55.24,2.29-5.96,5.75-12.03,10.23-16.49,14.38-14.29,29.48-27.84,44.31-41.68.57-.37,1.14-.74,1.71-1.11,5.21-4.07,10.73-7.82,15.49-12.36,1.79-1.71,1.83-5.25,2.67-7.96,0-2.55,0-5.09.01-7.64-1.41-20.98,8.94-36.83,22.28-51.48,1.11-1.21,1.84-3.46,1.62-5.08-4.72-33.94,2.63-65.16,20.75-94.08,3.58-5.71,5.93-12.36,10.2-17.43,6.83-8.1,14.81-15.25,22.31-22.79.89-.56,1.77-1.12,2.66-1.67,14.2-9.98,29.74-16.55,46.87-19.91,18.07-3.54,36.02-7.79,53.85-12.4,3.76-.97,6.42-6.04,10.19-7.12,11.02-3.14,22.26-5.76,33.57-7.6,17.57-2.85,35.28-4.82,52.91-7.29,15.4-2.16,30.82-4.21,46.14-6.84,14.56-2.49,28.95-6,43.52-8.42,10.21-1.69,20.6-2.27,30.91-3.38,11.78-1.27,23.55-3.66,35.32-3.65,24.35.03,48.75.64,73.04,2.3,21.61,1.47,43.3,3.61,64.6,7.44,19.49,3.5,38.48,9.73,57.72,14.63,11.08,2.82,22.38,4.87,33.3,8.19,19.25,5.84,38.2,12.72,57.46,18.52,11.97,3.6,23.96,6.79,33.89,14.87.55.35,1.09.7,1.64,1.05,6.58,4.23,13.16,8.46,19.73,12.69.57.36,1.13.71,1.7,1.07,21.77,12.9,34.97,31.01,35.35,57.17.02,1.5,2.5,3.06,3.97,4.44,3.14,2.97,7.8,5.23,9.34,8.85,12.13,28.4,13.44,57.76,6.38,87.65-4.06,17.17-7.9,34.39-12.24,51.49-1.34,5.26-4,10.19-6.06,15.27-.38.55-.76,1.11-1.15,1.66Zm-278.83,10.59c1.48-.03,2.97-.05,4.45-.08,4.15.45,8.31.9,12.46,1.35,1.46.05,2.92.1,4.37.15,8.18.03,16.36.06,24.55.09,1.55-.03,3.09-.05,4.64-.08,5.64-.52,11.27-1.04,16.91-1.56,1.95-.06,3.91-.11,5.86-.17,2.63-.45,5.25-.91,7.88-1.36l.71.08s.69-.17.69-.17c1.58-.46,3.16-.92,4.75-1.39,1.51-.44,3.01-.87,4.52-1.31.53-.08,1.05-.15,1.58-.23l.71.07.7-.18c4.63-1.49,9.26-2.99,13.9-4.48l.71.07s.69-.18.69-.18c4.65-1.51,9.3-3.03,13.95-4.54.97-.41,1.95-.83,2.92-1.24,4.64-1.62,9.27-3.25,13.91-4.87.98-.41,1.95-.83,2.93-1.24,13.38-5.9,26.6-12.18,40.17-17.61,19.6-7.85,33.05-23.18,43.61-39.75,10.59-16.61,16.79-36.01,24.91-54.19.42-.97.83-1.94,1.25-2.92.47-1.59.95-3.18,1.42-4.77.22-.44.26-.9.12-1.38.48-2.09.95-4.17,1.43-6.26.21-.45.25-.91.11-1.38.45-2.1.9-4.21,1.35-6.31.08-.95.16-1.9.24-2.85.46-1.58.91-3.15,1.37-4.73.21-.45.24-.91.09-1.39,0-7.68,0-15.35.01-23.03.13-.48.09-.94-.13-1.38-3.98-6.91-6.66-15.14-12.16-20.49-27.46-26.71-62.29-40.32-97.72-52.59-.46-.21-.95-.31-1.46-.31-1.05-.39-2.1-.78-3.14-1.16-.45-.23-.91-.28-1.4-.15-6.65-2.12-13.3-4.23-19.95-6.35-1.53-.5-3.06-1-4.59-1.5-1.05-.4-2.09-.81-3.14-1.21-.46-.21-.95-.31-1.46-.31-1.05-.38-2.1-.77-3.15-1.15-.44-.23-.91-.28-1.39-.16-.53-.08-1.06-.16-1.58-.25-1.53-.5-3.06-1-4.59-1.5-1.05-.4-2.09-.79-3.14-1.19-.45-.22-.92-.26-1.4-.13-5.12-1.61-10.24-3.21-15.35-4.82-1.53-.5-3.06-1-4.59-1.51-1.05-.39-2.09-.79-3.14-1.18-.45-.22-.92-.26-1.4-.13-.53-.08-1.05-.16-1.58-.23-.99-.42-1.98-.84-2.97-1.25-1.61-.45-3.21-.9-4.82-1.35-.95-.07-1.9-.14-2.85-.22l-6.27-1.41c-.45-.2-.92-.24-1.4-.11-1.58-.45-3.16-.9-4.74-1.34-.44-.24-.9-.29-1.38-.16l-4.8-1.32c-.95-.08-1.89-.16-2.84-.24-6.69,0-13.37,0-20.06,0-5.03.02-10.06.03-15.09.05-1.08,0-2.16-.02-3.24-.02-.47-.15-.95-.17-1.43-.03-2.09-.45-4.17-.9-6.26-1.35-.44-.22-.9-.26-1.38-.12-2.6-.47-5.2-.95-7.8-1.42-.45-.21-.91-.25-1.38-.11-3.62-.49-7.23-.98-10.85-1.47-.46-.2-.92-.23-1.4-.09-2.11-.45-4.22-.9-6.33-1.35-1.45-.06-2.9-.12-4.35-.18-4.15-.48-8.3-.97-12.44-1.45-1.98-.03-3.95-.06-5.93-.1-3.64-.46-7.28-.92-10.91-1.38-1.47-.05-2.93-.1-4.4-.15-8.21,0-16.43,0-24.64,0-2.47.06-4.94.11-7.41.17-4.16.46-8.32.92-12.48,1.37-1.47.04-2.93.08-4.4.12-2.61.45-5.22.9-7.82,1.35-.97.05-1.94.11-2.91.16-2.6.46-5.21.92-7.81,1.38-1.46.08-2.92.15-4.38.23-2.61.45-5.23.9-7.85,1.35-.48-.14-.96-.11-1.42.09-2.08.46-4.17.92-6.25,1.38-1.47.05-2.95.09-4.42.14-3.12.47-6.23.94-9.35,1.41-.97.05-1.94.09-2.9.14-3.12.46-6.23.91-9.35,1.37-1.97.05-3.95.11-5.92.16-3.63.46-7.27.92-10.9,1.39-.96.07-1.92.15-2.87.22-1.06.36-2.13.72-3.19,1.08-1.54.5-3.07,1.01-4.61,1.51-2.06.58-4.11,1.16-6.17,1.74-1.52.44-3.03.88-4.55,1.32-1.03.09-2.06.19-3.09.28-.49-.14-.95-.09-1.4.14-2.08.46-4.17.92-6.25,1.39-.49-.14-.95-.1-1.41.12-2.08.46-4.16.93-6.24,1.39-.49-.14-.96-.11-1.42.1-2.09.46-4.18.92-6.27,1.38-2.99.05-5.97.11-8.96.16-3.13.46-6.26.91-9.38,1.37-.96.07-1.92.15-2.88.22-2.1.45-4.2.91-6.29,1.36-.48-.14-.95-.11-1.41.12l-4.72,1.34c-.97.07-1.93.14-2.9.21-1.59.44-3.18.88-4.76,1.32-1.46.08-2.93.15-4.39.23-2.1.43-4.21.87-6.31,1.3-.96.07-1.93.14-2.89.21-1.59.44-3.18.88-4.77,1.32-1.49.45-2.98.89-4.47,1.34-4.62,2.61-9.25,5.23-13.87,7.84-.49-.13-.97-.08-1.43.13-2.59.46-5.18.93-7.77,1.39-.96.08-1.92.16-2.88.24-1.6.43-3.19.86-4.79,1.29-1.47.06-2.93.12-4.4.17-2.1.46-4.19.93-6.29,1.39-.49-.13-.96-.09-1.41.12-2.09.45-4.17.9-6.26,1.35-1.97.08-3.94.15-5.9.23l-4.8,1.3c-.97.07-1.93.13-2.9.2-2.09.45-4.18.9-6.27,1.36-.49-.13-.96-.08-1.43.13-4.12,1.48-8.23,2.97-12.35,4.45-.49-.12-.97-.08-1.42.14-1.57.47-3.14.94-4.7,1.4-.49-.12-.96-.07-1.41.16-1.58.46-3.16.92-4.74,1.39-1,.42-2,.84-3.01,1.26-14.31,2.75-24.38,12.75-35.39,20.98-10.05,7.51-14.28,19.1-20.21,29.71-8.12,14.54-13.17,29.88-17.44,45.7-.07,1.96-.13,3.93-.2,5.89.01,7.17.03,14.33.04,21.5-.14.49-.09.96.12,1.41,1.05,4.39,2.24,8.74,3.11,13.16,4.17,21.04,17.61,34.58,35.97,43.93,11.03,5.62,22.11,11.26,33.59,15.87,18.86,7.59,38.06,14.35,57.12,21.45l.7.2.73-.06c1.56.48,3.12.95,4.69,1.43l.71.18.73-.07c10.21,4.15,20.42,8.3,30.63,12.45,1,.41,2,.82,3,1.24,1.58.47,3.17.94,4.75,1.4l.69.22.72-.05c1.57.46,3.14.92,4.71,1.38l.69.21.72-.05c1.56.48,3.13.97,4.69,1.45.47.2.96.31,1.47.31,1.05.37,2.09.75,3.14,1.12l.69.22.72-.05c1.56.48,3.13.96,4.69,1.44l.71.18.73-.07c.52.07,1.03.15,1.55.22,1.51.44,3.03.88,4.54,1.32,1.57.46,3.15.92,4.72,1.37l.7.19.72-.06,4.7,1.39.7.2.72-.06c1.58.45,3.16.9,4.74,1.35.97.07,1.94.14,2.9.2,2.1.43,4.21.86,6.31,1.29,1.46.08,2.92.15,4.39.23,2.08.46,4.17.92,6.25,1.37l.7.19.72-.07c2.09.46,4.18.91,6.27,1.37.97.06,1.93.12,2.9.18,3.12.44,6.25.89,9.37,1.33l4.39.18c6.76.56,13.54,1.66,20.29,1.57,18.81-.26,37.6-1.02,56.41-1.58,2.47-.03,4.94-.07,7.41-.1,2.62-.46,5.25-.93,7.87-1.39,1.51-.44,3.01-.87,4.52-1.31.53-.09,1.06-.17,1.58-.26l.7.05.67-.22c1.58-.45,3.16-.9,4.74-1.35l.71.06.69-.19c2.09-.48,4.18-.96,6.27-1.44l.7.07s.67-.21.67-.21c1.58-.45,3.16-.9,4.74-1.35l.71.07.69-.18c1.58-.46,3.15-.92,4.73-1.38.96-.07,1.91-.14,2.87-.21l4.79-1.35c.95-.06,1.91-.11,2.86-.17,5.17-.45,10.34-.89,15.5-1.33.98.03,1.96.06,2.94.09,2.07-.02,4.13-.05,6.19-.07,3.56,0,7.12,0,10.68.01,6.64-.02,13.28-.04,19.91-.05,8.15.01,16.3.03,24.46.04,1.05.02,2.1.04,3.15.06Zm-387.31-11.95c-.6.51-1.21,1.02-1.81,1.54,4.29,3.4,4.25,7.63,2.58,12.33-.92,2.59-1.75,5.28-2.11,7.99-2.58,19.22,2.38,36.96,10.9,53.96,3.94,7.86.75,15.79-7.28,16.81-6.88.88-10.09-4.24-11.9-9.61-5.72-17-12.31-34.05-10.03-52.39,1.12-9.02,3.27-18.41,7.35-26.4,3.51-6.87,4.85-7.24-2.61-9.99-14.42-5.31-28.89-10.48-43.37-15.63-18.11-6.45-34.5-15.46-45.8-31.6-3.67-5.25-6.4-11.15-9.65-16.9-9.24,9.72-12.74,20.65-11.44,33.16.39.38.78.75,1.17,1.13,2.22-.45,4.68-1.73,6.6-1.17,3.06.9,7.62,2.56,8.15,4.73.72,2.92-1.16,7.07-3.12,9.86-1.41,2.01-5.52,2.06-7.07,4.04-2.93,3.73-6.88,8.23-6.87,12.4.03,14.38,2,28.74,2.46,43.13.5,15.4.97,30.88-.1,46.22-.88,12.65,4.22,20.32,15.13,25.14,4.63,2.05,9.28,4.15,14.09,5.68,27.77,8.86,56.01,15.34,84.84,20.16,27.28,4.57,54.32,9.32,82.12,9.04,9.64-.1,19.32,2.32,28.95,3.78,13.75,2.07,27.41,5.33,41.23,6.24,21.71,1.43,43.54.86,65.27,2,16.89.89,33.72,3.14,50.57,4.74,21.39,2.02,42.75,4.92,64.19,5.75,25.97,1,52.01.3,78.02.17,3.49-.02,7.23-.39,10.42-1.67,19.5-7.84,38.85-16.05,58.3-24.01,14.05-5.75,28.31-11.01,42.25-17.04,28.04-12.13,58.09-21.04,77.38-47.51,3.37-4.62,10.52-8.49,10.68-12.89.16-4.56-5.78-9.6-9.62-13.92-2.35-2.64-5.62-5.8-8.76-6.13-6.47-.68-9.39-3.22-8.8-9.61.75-8.14,4.5-12.02,11.48-10.71,3.49.66,7.32,2.65,9.72,5.22,4.79,5.14,8.82,11.02,12.93,16.75,5.08,7.09,5.82,7.78,11.17.49,7.09-9.66,13.86-19.89,18.68-30.8,8.15-18.44,15.64-37.31,21.54-56.57,4.18-13.64,6.48-28.14,7.42-42.4.88-13.39,5.43-27.2-1.03-40.49-.8-1.65-2.03-3.09-3.07-4.63-.93,1.6-2.08,3.11-2.74,4.82-5.71,14.8-10.51,30-17.17,44.35-8.73,18.82-21.71,34.85-38.33,47.38-11.45,8.63-23.12,17.63-36.06,23.47-16.52,7.46-34.53,11.59-51.69,17.72-36.61,13.09-74.59,16.21-113.04,16.35-11.98.04-23.99-.3-35.94.37-16.42.93-32.84,2.3-49.18,4.17-12.3,1.41-25.05,2.26-36.59,6.26-22.76,7.89-45.79,2.53-68.61,3.63-16.14.78-32.42-1.56-48.65-2.22-1.72-.07-4.75,1.5-5.08,2.81-3.42,13.96-6.56,27.99-9.44,42.07-.95,4.66-1.63,9.58-1.23,14.27.65,7.67-1.29,11.63-7.36,12.21-4.81.46-11.8-5.81-11.21-11.13,1.2-10.99,2.82-21.97,4.99-32.8,1.68-8.4,4.44-16.6,6.76-24.87,1.01-3.6.42-5.5-4.01-5.98-10.06-1.1-20.16-2.3-30.03-4.41-22.94-4.91-46.24-7.81-67.8-18.89-11.56-5.94-25.73-6.82-38.73-9.98Zm-5.45-1.24c-.13.08-.3.19-.47.3.14.14.26.38.42.4.15.02.33-.19.5-.29-.15-.13-.3-.27-.45-.41Z"/>
    <path class="cls-9" d="m183.51,223.92c-.89.56-1.77,1.12-2.66,1.67.89-.56,1.77-1.12,2.66-1.67Z"/>
    <path class="cls-9" d="m85.51,444.41c-.57.37-1.14.74-1.71,1.11.57-.37,1.14-.74,1.71-1.11Z"/>
    <path class="cls-7" d="m402.5,475.63c-2.09-.46-4.18-.91-6.27-1.37-.47-.04-.95-.08-1.42-.12-2.08-.46-4.17-.92-6.25-1.37-1.46-.08-2.92-.15-4.39-.23-2.1-.43-4.21-.86-6.31-1.28-.97-.07-1.94-.14-2.9-.2-1.58-.45-3.16-.9-4.74-1.35-.47-.05-.95-.09-1.42-.14-1.57-.46-3.13-.93-4.7-1.39-.48-.04-.95-.08-1.43-.13-1.57-.46-3.15-.92-4.72-1.37-1.51-.44-3.03-.88-4.54-1.32-.52-.07-1.03-.15-1.55-.22-.48-.04-.96-.08-1.44-.12-1.56-.48-3.13-.96-4.69-1.44-.47-.06-.94-.11-1.41-.17-1.05-.37-2.09-.75-3.14-1.12-.49-.1-.98-.2-1.47-.31-1.56-.48-3.13-.97-4.69-1.45-.47-.05-.94-.1-1.42-.15-1.57-.46-3.14-.92-4.71-1.37-.47-.06-.94-.11-1.41-.17-1.58-.47-3.17-.94-4.75-1.4-1-.41-2-.83-3-1.24-10.21-4.15-20.42-8.3-30.63-12.44-.48-.04-.96-.07-1.44-.11-1.56-.48-3.12-.95-4.69-1.42-.47-.05-.95-.09-1.43-.14-19.06-7.11-38.26-13.87-57.12-21.45-11.47-4.61-22.55-10.26-33.59-15.87-18.36-9.35-31.8-22.89-35.97-43.93-.88-4.42-2.07-8.78-3.11-13.16.14-.15.43-.35.4-.44-.12-.34-.34-.65-.52-.97-.01-7.17-.03-14.33-.04-21.5.07-1.96.13-3.93.2-5.9,4.27-15.82,9.32-31.16,17.44-45.7,5.93-10.61,10.16-22.2,20.21-29.71,11.01-8.23,21.08-18.22,35.39-20.98,1-.42,2-.84,3.01-1.26,1.58-.46,3.16-.92,4.74-1.39.47-.05.94-.11,1.41-.16,1.57-.47,3.14-.94,4.7-1.4.47-.05.95-.09,1.42-.14,4.12-1.48,8.23-2.97,12.35-4.45.47-.04.95-.08,1.43-.12,2.09-.45,4.18-.9,6.27-1.36.97-.07,1.93-.13,2.9-.19,1.6-.43,3.2-.87,4.79-1.31,1.97-.08,3.94-.15,5.91-.22,2.09-.45,4.17-.9,6.26-1.35.47-.04.94-.08,1.42-.12,2.1-.46,4.19-.92,6.29-1.39,1.47-.06,2.93-.12,4.4-.17,1.6-.43,3.19-.86,4.79-1.29.96-.08,1.92-.16,2.88-.24,2.59-.46,5.18-.93,7.77-1.39.48-.04.95-.09,1.43-.13,4.62-2.61,9.25-5.23,13.87-7.84,1.49-.45,2.98-.89,4.47-1.34,1.59-.44,3.18-.88,4.77-1.32.96-.07,1.93-.14,2.9-.21,2.1-.43,4.21-.87,6.31-1.31,1.46-.08,2.93-.15,4.39-.23,1.59-.44,3.18-.88,4.76-1.32.97-.07,1.93-.14,2.9-.2,1.57-.45,3.14-.89,4.72-1.34.47-.04.94-.08,1.41-.11,2.1-.45,4.2-.91,6.29-1.36.96-.07,1.92-.15,2.88-.22,3.13-.46,6.26-.91,9.38-1.37,2.99-.06,5.97-.11,8.96-.16,2.09-.46,4.18-.92,6.27-1.38.47-.03.95-.07,1.42-.1,2.08-.46,4.16-.93,6.24-1.4.47-.04.94-.08,1.41-.12,2.08-.46,4.17-.92,6.25-1.39.47-.05.94-.09,1.4-.14,1.03-.09,2.06-.19,3.09-.28,1.52-.44,3.03-.88,4.55-1.32,2.06-.58,4.11-1.16,6.17-1.74,1.54-.5,3.07-1.01,4.61-1.51,1.06-.36,2.13-.72,3.19-1.08.96-.07,1.92-.15,2.88-.22,3.63-.46,7.27-.92,10.9-1.39,1.97-.05,3.95-.11,5.92-.16,3.12-.46,6.23-.91,9.35-1.37.97-.05,1.94-.09,2.91-.14,3.12-.47,6.23-.94,9.35-1.41,1.47-.05,2.95-.09,4.42-.14,2.08-.46,4.17-.92,6.25-1.38.47-.03.95-.06,1.42-.09,2.61-.45,5.23-.9,7.84-1.35,1.46-.08,2.92-.15,4.38-.22,2.6-.46,5.21-.92,7.81-1.38.97-.06,1.94-.11,2.92-.16,2.61-.45,5.22-.9,7.82-1.35,1.46-.04,2.93-.08,4.4-.12,4.16-.46,8.32-.92,12.47-1.38,2.47-.06,4.94-.11,7.42-.17,8.21,0,16.43,0,24.64,0,1.47.05,2.93.1,4.4.15,3.64.46,7.28.92,10.91,1.38,1.98.03,3.95.06,5.93.1,4.15.48,8.3.97,12.44,1.45,1.45.06,2.9.12,4.35.18,2.11.45,4.22.9,6.33,1.35.47.03.93.06,1.4.09,3.62.49,7.23.98,10.85,1.46.46.04.92.07,1.38.11,2.6.47,5.2.95,7.8,1.42.46.04.92.08,1.38.12,2.09.45,4.17.9,6.26,1.35.48.01.96.02,1.43.03,1.08,0,2.16.02,3.24.02,5.03-.02,10.06-.03,15.09-.05,6.69,0,13.37,0,20.06,0,.95.08,1.9.16,2.84.24,1.6.44,3.2.88,4.8,1.32.46.05.92.1,1.38.16,1.58.45,3.16.9,4.74,1.34.47.04.94.08,1.4.12,2.09.47,4.18.94,6.27,1.41.95.07,1.9.15,2.85.22,1.61.45,3.21.9,4.82,1.34.99.42,1.98.84,2.97,1.25.53.08,1.05.16,1.58.23.47.04.94.09,1.4.13,1.05.39,2.09.79,3.14,1.18,1.53.5,3.06,1,4.59,1.51,5.12,1.61,10.24,3.21,15.35,4.81.47.04.94.09,1.4.13,1.05.4,2.09.79,3.14,1.19,1.53.5,3.06,1,4.59,1.5.53.08,1.06.16,1.58.24.46.05.93.11,1.39.16,1.05.38,2.1.77,3.15,1.15.49.1.97.21,1.46.31,1.05.4,2.09.81,3.14,1.21,1.53.5,3.06,1,4.59,1.5,6.65,2.12,13.3,4.23,19.95,6.35.47.05.93.1,1.4.15,1.05.39,2.1.78,3.14,1.16.49.1.97.21,1.46.31,35.43,12.27,70.26,25.88,97.72,52.59,5.5,5.35,8.18,13.59,12.16,20.49-.14.15-.42.34-.39.43.12.34.34.64.52.95,0,7.68,0,15.35-.01,23.02-.16.13-.47.28-.45.38.06.35.23.67.36,1.01-.46,1.58-.91,3.15-1.37,4.73-.08.95-.16,1.9-.24,2.85-.45,2.1-.9,4.21-1.35,6.31-.16.13-.47.28-.45.38.05.35.22.67.35,1.01-.48,2.09-.95,4.17-1.43,6.25-.16.13-.47.27-.45.37.05.34.21.67.33,1.01-.47,1.59-.95,3.18-1.42,4.77-.42.97-.84,1.94-1.25,2.92-8.12,18.18-14.32,37.58-24.91,54.19-10.56,16.57-24.01,31.9-43.61,39.75-13.57,5.43-26.79,11.71-40.17,17.61-.98.41-1.95.83-2.93,1.24-4.64,1.62-9.27,3.25-13.91,4.87-.97.41-1.95.83-2.92,1.24-4.65,1.51-9.3,3.03-13.95,4.54-.47.04-.94.07-1.41.11-4.63,1.49-9.26,2.99-13.9,4.48-.47.04-.94.07-1.41.1-.53.08-1.05.15-1.58.23-1.51.44-3.01.87-4.52,1.31-1.58.46-3.16.92-4.74,1.39-.47.03-.93.06-1.4.1-2.63.45-5.25.91-7.87,1.36-1.95.06-3.91.11-5.86.17-5.64.52-11.27,1.04-16.91,1.56-1.55.03-3.09.05-4.64.08-8.18-.03-16.36-.06-24.55-.09-1.46-.05-2.92-.1-4.37-.16-4.15-.45-8.31-.9-12.46-1.35-1.52-.43-3.04-.85-4.56-1.28-1.02.43-2.03.87-3.05,1.3-8.15-.01-16.3-.03-24.45-.04-6.64.02-13.28.04-19.91.05-3.56,0-7.12,0-10.68,0-2.03-.43-4.06-.87-6.08-1.3-1.02.42-2.03.85-3.05,1.27-5.17.45-10.34.89-15.5,1.34-.95.06-1.91.11-2.86.17-1.6.45-3.2.9-4.79,1.35-.96.07-1.91.14-2.87.21-1.58.46-3.15.92-4.73,1.38-.47.04-.93.07-1.4.11-1.58.45-3.16.9-4.74,1.35-.46.05-.91.09-1.37.14-2.09.48-4.18.96-6.27,1.44-.46.04-.93.08-1.4.13-1.58.45-3.16.9-4.74,1.35-.46.06-.92.11-1.38.16-.53.09-1.06.17-1.58.26-1.51.44-3.01.87-4.52,1.31-2.62.46-5.25.93-7.87,1.39-2.47.03-4.94.07-7.41.1-18.8.56-37.6,1.32-56.41,1.58-6.75.09-13.53-1.01-20.29-1.57-1.46-.06-2.92-.12-4.39-.18-3.12-.44-6.25-.89-9.37-1.33-.97-.06-1.93-.12-2.9-.18Zm242.95-243.96c-.52,3.21-.79,6.49-1.6,9.63-2.32,8.95-5.56,17.74-6.88,26.82-.4,2.71,3.76,7.84,6.85,8.91,4.99,1.73,9.39-1.5,10.81-6.9,2.41-9.2,4.43-18.51,6.61-27.77.18-.16.52-.35.49-.47-.09-.4-.3-.77-.46-1.15.02-3.02.04-6.05.06-9.07.16-.17.48-.4.45-.51-.13-.39-.38-.74-.59-1.1-5.75-6.62-11.94-6.63-15.57,0-.18.15-.54.31-.52.44.05.4.23.78.36,1.17Zm-145.05,160.04c-.54.02-1.09.05-1.63.07-5.75-.79-11.9-.53-17.17-2.56-24.12-9.28-47.99-19.24-71.98-28.88-7.04-2.83-14.07-5.83-21.34-7.93-4.26-1.23-9.05-.5-10.27,5.1-1.1,5.04.47,8.59,6.07,10.49,12.49,4.23,24.65,9.47,37.18,13.56,21.15,6.9,42.48,13.23,63.74,19.8l1.62.11c17,1.14,32.98-3.54,49.25-7.67,33.08-8.4,63.67-22.48,93.82-37.94,11.61-5.96,23.89-10.62,35.86-15.87,2.59-.38,5.17-.77,7.76-1.15,1,0,2.01,0,3.01,0,.54-.05,1.07-.11,1.61-.16,5.41-6.57,4.38-11.26-3.58-12.38-5.17-.73-11.27-.45-15.9,1.66-20.91,9.54-40.92,21.2-62.24,29.64-31.5,12.46-63.83,22.84-95.8,34.11Zm-66.19-151.34c-1.73-2.31-3.01-5.79-5.21-6.5-2.69-.88-7.95-.52-8.95,1.17-5.88,9.88-11.56,20.02-15.78,30.68-1.92,4.85,2.33,9.32,7.91,10.01,5.3.66,8.24-2.63,10.04-7.47,2.61-7.07,5.61-14,8.52-20.95.85-2.03,1.97-3.95,3.48-6.93Z"/>
    <path class="cls-3" d="m124.14,416.5c-1.29-12.51,2.2-23.44,11.44-33.16,3.25,5.75,5.98,11.66,9.65,16.9,11.3,16.14,27.69,25.16,45.8,31.6,14.48,5.15,28.95,10.33,43.37,15.63,7.46,2.74,6.12,3.11,2.61,9.99-4.09,8-6.23,17.39-7.35,26.4-2.28,18.34,4.31,35.4,10.03,52.39,1.81,5.37,5.01,10.49,11.9,9.61,8.02-1.02,11.21-8.95,7.28-16.81-8.51-17-13.47-34.74-10.9-53.96.36-2.71,1.19-5.4,2.11-7.99,1.67-4.7,1.71-8.93-2.58-12.33.6-.51,1.21-1.02,1.81-1.54,12.99,3.16,27.17,4.04,38.73,9.98,21.57,11.08,44.86,13.97,67.8,18.89,9.88,2.12,19.98,3.31,30.03,4.41,4.43.49,5.02,2.38,4.01,5.98-2.31,8.28-5.08,16.47-6.76,24.87-2.17,10.84-3.79,21.82-4.99,32.8-.58,5.32,6.4,11.59,11.21,11.13,6.07-.58,8.01-4.54,7.36-12.21-.4-4.7.28-9.61,1.23-14.27,2.88-14.08,6.02-28.11,9.44-42.07.32-1.32,3.36-2.88,5.08-2.81,16.23.66,32.51,3,48.65,2.22,22.83-1.1,45.86,4.26,68.61-3.63,11.54-4,24.29-4.85,36.59-6.26,16.34-1.87,32.76-3.24,49.18-4.17,11.95-.68,23.96-.33,35.94-.37,38.45-.14,76.43-3.26,113.04-16.35,17.16-6.14,35.17-10.26,51.69-17.72,12.93-5.84,24.61-14.84,36.06-23.47,16.61-12.53,29.6-28.56,38.33-47.38,6.66-14.35,11.46-29.56,17.17-44.35.66-1.7,1.82-3.22,2.74-4.82,1.03,1.54,2.26,2.98,3.07,4.63,6.46,13.28,1.91,27.1,1.03,40.49-.93,14.26-3.24,28.76-7.42,42.4-5.9,19.26-13.39,38.13-21.54,56.57-4.82,10.91-11.59,21.14-18.68,30.8-5.35,7.29-6.08,6.6-11.17-.49-4.11-5.74-8.14-11.61-12.93-16.75-2.4-2.58-6.23-4.57-9.72-5.22-6.97-1.31-10.73,2.57-11.48,10.71-.59,6.39,2.33,8.92,8.8,9.61,3.13.33,6.41,3.49,8.76,6.13,3.84,4.32,9.78,9.36,9.62,13.92-.15,4.4-7.31,8.27-10.68,12.89-19.28,26.47-49.34,35.38-77.38,47.51-13.93,6.03-28.19,11.29-42.25,17.04-19.45,7.96-38.8,16.17-58.3,24.01-3.19,1.28-6.93,1.66-10.42,1.67-26.01.13-52.05.84-78.02-.17-21.44-.83-42.8-3.73-64.19-5.75-16.86-1.59-33.68-3.84-50.57-4.74-21.73-1.15-43.57-.58-65.27-2-13.82-.91-27.48-4.17-41.23-6.24-9.63-1.45-19.31-3.87-28.95-3.78-27.81.29-54.84-4.47-82.12-9.04-28.83-4.82-57.07-11.3-84.84-20.16-4.81-1.54-9.46-3.63-14.09-5.68-10.9-4.82-16.01-12.5-15.13-25.14,1.07-15.34.6-30.82.1-46.22-.47-14.39-2.43-28.75-2.46-43.13,0-4.17,3.94-8.67,6.87-12.4,1.55-1.98,5.67-2.04,7.07-4.04,1.95-2.79,3.83-6.94,3.12-9.86-.53-2.17-5.09-3.84-8.15-4.73-1.92-.56-4.38.72-6.6,1.17-.39-.38-.78-.75-1.17-1.13Zm526.69,89.11c1.96,10.27,2.77,18.42,5.14,26.08,4.17,13.49,9.68,26.57,13.86,40.07,1.81,5.84,4.28,9.56,10.5,7.66,6.42-1.97,6.11-7.7,4.72-12.71-5.68-20.38-11.86-40.62-17.46-61.03-1.42-5.17-4.31-8.09-9.04-6.63-3.22.99-5.61,4.67-7.72,6.56Zm-107.86,3.63c-.18.03-.37.06-.55.08.78,4.98,1.19,10.04,2.41,14.91,3.38,13.45,7.05,26.83,10.71,40.2,1.66,6.06,7.22,9.5,11.99,7.26,5.61-2.64,5.71-7.03,3.26-12.11-1.3-2.71-2.56-5.56-3.1-8.48-3.12-16.59-6.13-33.2-8.91-49.85-.82-4.92-3.29-7.17-8.11-7.12-4.92.06-7.53,2.58-7.69,7.49-.08,2.54-.01,5.08-.01,7.62Zm185.67-18.95c1.82,7.2,2.56,12.55,4.54,17.4,4.18,10.24,8.45,20.52,13.8,30.18,3.17,5.72,11.24,6.46,15.21,2.84,3.84-3.5,3.06-9.58-1.41-14.84-2.58-3.04-5.23-6.35-6.65-10-3.28-8.45-6.14-17.1-8.54-25.85-1.45-5.29-4.74-7.7-9.38-6.24-3.07.97-5.33,4.48-7.57,6.51Z"/>
    <path class="cls-5" d="m589.11,465.15c6.64-.02,13.28-.03,19.91-.05-6.64.02-13.28.03-19.91.05Z"/>
    <path class="cls-2" d="m657.91,172.27c-5.03.02-10.06.03-15.09.05,5.03-.02,10.06-.03,15.09-.05Z"/>
    <path class="cls-4" d="m387.02,186.01c-2.99.05-5.98.11-8.96.16,2.99-.05,5.98-.11,8.96-.16Z"/>
    <path class="cls-2" d="m495.86,477.3c2.47-.03,4.94-.07,7.41-.1-2.47.03-4.94.07-7.41.1Z"/>
    <path class="cls-4" d="m540.07,163.12c-2.47.05-4.95.11-7.42.17,2.47-.05,4.94-.11,7.42-.17Z"/>
    <path class="cls-2" d="m704.01,465.08c1.95-.05,3.91-.11,5.86-.17-1.95.05-3.91.11-5.86.17Z"/>
    <path class="cls-4" d="m151.8,318.83c-.07,1.97-.13,3.93-.2,5.9.07-1.97.13-3.93.2-5.9Z"/>
    <path class="cls-4" d="m273.77,210.43c-1.97.07-3.94.15-5.91.22,1.97-.07,3.94-.15,5.91-.22Z"/>
    <path class="cls-4" d="m451.31,173.78c-1.97.05-3.95.11-5.92.16,1.98-.05,3.95-.11,5.92-.16Z"/>
    <path class="cls-4" d="m585.95,164.74c-1.98-.03-3.95-.07-5.93-.1,1.98.03,3.95.07,5.93.1Z"/>
    <path class="cls-5" d="m572.34,463.84c2.03.43,4.06.87,6.08,1.3-2.07.02-4.13.04-6.19.07.05-.45.09-.91.11-1.37Z"/>
    <path class="cls-4" d="m292.14,207.4c-1.47.06-2.94.11-4.4.17,1.47-.06,2.94-.11,4.4-.17Z"/>
    <path class="cls-4" d="m417.64,179.88c-1.52.44-3.03.88-4.55,1.32,1.52-.44,3.03-.88,4.55-1.32Z"/>
    <path class="cls-4" d="m384.17,472.53c1.46.08,2.93.15,4.39.23-1.46-.08-2.93-.15-4.39-.23Z"/>
    <path class="cls-2" d="m720.75,182.73c-1.53-.5-3.06-1-4.59-1.51,1.53.5,3.06,1,4.59,1.51Z"/>
    <path class="cls-2" d="m653.54,466.47c1.46.05,2.92.1,4.37.16-1.46-.05-2.92-.1-4.37-.16Z"/>
    <path class="cls-2" d="m602.74,166.37c-1.45-.06-2.9-.12-4.35-.18,1.45.06,2.9.12,4.35.18Z"/>
    <path class="cls-4" d="m428.42,176.63c-1.54.5-3.07,1.01-4.61,1.51,1.54-.5,3.07-1.01,4.61-1.51Z"/>
    <path class="cls-5" d="m682.46,466.72c1.55-.02,3.09-.05,4.64-.08-1.55.02-3.09.05-4.64.08Z"/>
    <path class="cls-4" d="m569.11,163.26c-1.47-.05-2.93-.1-4.4-.15,1.47.05,2.93.1,4.4.15Z"/>
    <path class="cls-2" d="m745.24,190.37c-1.53-.5-3.06-1-4.59-1.5,1.53.5,3.06,1,4.59,1.5Z"/>
    <path class="cls-2" d="m511.14,475.81c1.51-.44,3.01-.87,4.52-1.31-1.51.44-3.01.87-4.52,1.31Z"/>
    <path class="cls-4" d="m414.77,477.14c1.46.06,2.92.12,4.39.18-1.46-.06-2.92-.12-4.39-.18Z"/>
    <path class="cls-4" d="m345.71,192.1c-1.46.07-2.93.15-4.39.23,1.47-.07,2.93-.15,4.39-.23Z"/>
    <path class="cls-2" d="m723.89,462.07c1.51-.44,3.01-.87,4.52-1.31-1.51.44-3.01.87-4.52,1.31Z"/>
    <path class="cls-4" d="m477.34,170.72c-1.47.05-2.95.09-4.42.14,1.48-.04,2.95-.09,4.42-.14Z"/>
    <path class="cls-2" d="m760.54,194.96c-1.53-.5-3.06-1-4.59-1.5,1.53.5,3.06,1,4.59,1.5Z"/>
    <path class="cls-4" d="m327.34,195.17c-1.49.45-2.98.89-4.47,1.34,1.49-.45,2.98-.89,4.47-1.34Z"/>
    <path class="cls-4" d="m353.4,465.34c1.51.44,3.03.88,4.54,1.32-1.51-.44-3.03-.88-4.54-1.32Z"/>
    <path class="cls-4" d="m497.23,167.68c-1.46.07-2.92.15-4.38.22,1.46-.07,2.92-.15,4.38-.22Z"/>
    <path class="cls-4" d="m520.18,164.66c-1.47.04-2.93.08-4.4.12,1.47-.04,2.93-.08,4.4-.12Z"/>
    <path class="cls-2" d="m636.53,463.84c1.52.43,3.04.86,4.56,1.28-1.48.02-2.97.05-4.45.08-.05-.45-.08-.91-.11-1.36Z"/>
    <path class="cls-2" d="m550.93,466.62c.95-.06,1.91-.11,2.86-.17-.96.06-1.91.11-2.86.17Z"/>
    <path class="cls-4" d="m299.8,205.87c-.96.08-1.92.16-2.88.24.96-.08,1.92-.16,2.88-.24Z"/>
    <path class="cls-5" d="m636.53,463.84c.02.45.06.91.11,1.36-1.05-.02-2.1-.04-3.15-.06,1.02-.43,2.03-.87,3.05-1.3Z"/>
    <path class="cls-4" d="m335,193.64c-.97.07-1.93.14-2.9.21.97-.07,1.93-.14,2.9-.21Z"/>
    <path class="cls-4" d="m263.07,211.96c-.97.06-1.94.13-2.9.19.97-.06,1.94-.13,2.9-.19Z"/>
    <path class="cls-4" d="m353.37,190.57c-.97.07-1.93.14-2.9.2.97-.07,1.93-.14,2.9-.2Z"/>
    <path class="cls-4" d="m368.67,187.54c-.96.07-1.92.14-2.88.22.96-.07,1.92-.14,2.88-.22Z"/>
    <path class="cls-2" d="m572.34,463.84c-.02.46-.06.91-.11,1.37-.98-.03-1.96-.06-2.94-.1,1.02-.43,2.03-.85,3.05-1.27Z"/>
    <path class="cls-2" d="m543.26,468.18c.96-.07,1.91-.14,2.87-.21-.96.07-1.91.14-2.87.21Z"/>
    <path class="cls-4" d="m227.84,221.19c-1,.42-2,.84-3.01,1.26,1-.42,2-.84,3.01-1.26Z"/>
    <path class="cls-4" d="m374.95,471.04c.97.07,1.94.14,2.9.2-.97-.07-1.94-.14-2.9-.2Z"/>
    <path class="cls-4" d="m402.5,475.63c.97.06,1.93.12,2.9.18-.97-.06-1.93-.12-2.9-.18Z"/>
    <path class="cls-4" d="m319.73,456.18c1,.41,2,.83,3,1.24-1-.41-2-.83-3-1.24Z"/>
    <path class="cls-6" d="m249.32,453.24c-.6.51-1.21,1.02-1.81,1.54.6-.51,1.21-1.02,1.81-1.54Z"/>
    <path class="cls-2" d="m760.64,451.28c.97-.41,1.95-.83,2.92-1.24-.97.41-1.95.83-2.92,1.24Z"/>
    <path class="cls-2" d="m710.04,179.68c-.99-.42-1.98-.84-2.97-1.25.99.42,1.98.84,2.97,1.25Z"/>
    <path class="cls-2" d="m777.47,445.18c.98-.41,1.95-.83,2.93-1.24-.98.41-1.95.83-2.93,1.24Z"/>
    <path class="cls-4" d="m434.48,175.33c-.96.07-1.92.14-2.88.22.96-.07,1.92-.14,2.88-.22Z"/>
    <path class="cls-2" d="m680.81,172.52c-.95-.08-1.9-.16-2.84-.24.95.08,1.9.16,2.84.24Z"/>
    <path class="cls-2" d="m894.78,309.38c.08-.95.16-1.9.24-2.85-.08.95-.16,1.9-.24,2.85Z"/>
    <path class="cls-4" d="m463.56,172.27c-.97.05-1.94.09-2.91.14.97-.04,1.94-.09,2.91-.14Z"/>
    <path class="cls-4" d="m507.96,166.13c-.97.05-1.94.11-2.92.16.97-.05,1.94-.11,2.92-.16Z"/>
    <path class="cls-2" d="m889.1,332.39c.42-.97.84-1.95,1.25-2.92-.42.97-.84,1.95-1.25,2.92Z"/>
    <path class="cls-2" d="m702.24,177.08c-.95-.07-1.9-.15-2.85-.22.95.07,1.9.15,2.85.22Z"/>
    <path class="cls-4" d="m359.5,189.12c-.47.04-.94.07-1.41.11.46-.22.92-.26,1.41-.11Z"/>
    <path class="cls-4" d="m350.42,465.01c.48.04.96.08,1.44.12,0,0-.73.06-.73.06l-.71-.18Z"/>
    <path class="cls-2" d="m893.32,317.08c-.12-.33-.29-.66-.35-1.01-.02-.1.29-.25.45-.38.14.48.11.94-.11,1.38Z"/>
    <path class="cls-4" d="m151.64,346.23c.18.32.41.63.52.97.03.09-.26.29-.4.44-.22-.46-.26-.93-.12-1.41Z"/>
    <path class="cls-2" d="m896.39,301.8c-.13-.33-.3-.66-.36-1.01-.02-.1.29-.25.45-.38.14.47.11.94-.09,1.39Z"/>
    <path class="cls-6" d="m124.14,416.5c.39.38.78.75,1.17,1.13-.39-.38-.78-.75-1.17-1.13Z"/>
    <path class="cls-4" d="m281.55,442.06c.48.05.95.09,1.43.14,0,0-.73.06-.73.06l-.7-.2Z"/>
    <path class="cls-4" d="m287.66,443.62c.48.04.96.07,1.44.11,0,0-.73.07-.73.07l-.71-.18Z"/>
    <path class="cls-3" d="m243.87,452c.16.14.3.27.45.41-.17.11-.35.31-.5.29-.15-.02-.28-.26-.42-.4.17-.11.34-.21.47-.3Z"/>
    <path class="cls-2" d="m745.29,455.94c.47-.04.94-.07,1.41-.11,0,0-.69.18-.69.18,0,0-.71-.07-.71-.07Z"/>
    <path class="cls-4" d="m327.48,458.82c.47.06.94.11,1.41.17,0,0-.72.05-.72.05l-.69-.22Z"/>
    <path class="cls-4" d="m333.6,460.36c.47.05.94.1,1.42.15,0,0-.72.05-.72.05l-.69-.21Z"/>
    <path class="cls-2" d="m729.98,460.52c.47-.03.94-.07,1.41-.1,0,0-.7.17-.7.17l-.71-.07Z"/>
    <path class="cls-4" d="m339.7,461.97c.49.1.98.2,1.47.31-.51,0-1-.1-1.47-.31Z"/>
    <path class="cls-4" d="m234,219.64c-.47.05-.94.11-1.41.16.45-.23.92-.29,1.41-.16Z"/>
    <path class="cls-4" d="m344.32,463.39c.47.06.94.12,1.41.17,0,0-.72.05-.72.05l-.69-.22Z"/>
    <path class="cls-2" d="m717.74,463.55c.47-.03.93-.06,1.4-.1,0,0-.69.17-.69.17l-.71-.08Z"/>
    <path class="cls-2" d="m896.5,277.39c-.18-.31-.4-.61-.52-.95-.03-.09.25-.29.39-.43.22.45.26.91.12,1.38Z"/>
    <path class="cls-4" d="m240.12,218.09c-.47.05-.95.09-1.42.14.46-.22.93-.27,1.42-.14Z"/>
    <path class="cls-4" d="m253.9,213.52c-.48.04-.95.08-1.43.12.46-.21.94-.25,1.43-.12Z"/>
    <path class="cls-4" d="m281.44,208.96c-.47.04-.94.08-1.42.12.46-.21.93-.25,1.42-.12Z"/>
    <path class="cls-4" d="m309,204.35c-.48.04-.95.08-1.43.13.46-.21.94-.25,1.43-.13Z"/>
    <path class="cls-2" d="m786.49,202.93c-.49-.1-.97-.21-1.46-.31.51,0,.99.1,1.46.31Z"/>
    <path class="cls-2" d="m781.89,201.45c-.47-.05-.93-.1-1.4-.15.48-.13.95-.08,1.4.15Z"/>
    <path class="cls-2" d="m752.82,192.24c-.49-.1-.97-.21-1.46-.31.51,0,.99.1,1.46.31Z"/>
    <path class="cls-2" d="m748.21,190.78c-.46-.05-.93-.11-1.39-.16.48-.12.95-.07,1.39.16Z"/>
    <path class="cls-2" d="m737.51,187.68c-.47-.05-.94-.09-1.4-.13.48-.13.95-.08,1.4.13Z"/>
    <path class="cls-4" d="m362.67,468.04c.48.04.95.09,1.43.13,0,0-.72.06-.72.06l-.7-.19Z"/>
    <path class="cls-4" d="m394.7,184.52c-.47.03-.95.07-1.42.1.46-.21.93-.24,1.42-.1Z"/>
    <path class="cls-4" d="m368.79,469.55c.47.05.95.09,1.42.14,0,0-.72.06-.72.06l-.7-.2Z"/>
    <path class="cls-2" d="m537.13,469.67c.47-.04.93-.07,1.4-.11,0,0-.69.18-.69.18l-.71-.07Z"/>
    <path class="cls-4" d="m402.35,183c-.47.04-.94.08-1.41.12.45-.22.92-.26,1.41-.12Z"/>
    <path class="cls-2" d="m531.02,471.16c.46-.05.91-.09,1.37-.14,0,0-.67.21-.67.21,0,0-.7-.07-.7-.07Z"/>
    <path class="cls-4" d="m410.01,181.48c-.47.04-.94.09-1.4.14.45-.23.92-.27,1.4-.14Z"/>
    <path class="cls-2" d="m523.36,472.73c.47-.04.93-.08,1.4-.13,0,0-.69.19-.69.19l-.71-.06Z"/>
    <path class="cls-4" d="m394.81,474.14c.47.04.95.08,1.42.12,0,0-.72.07-.72.07l-.7-.19Z"/>
    <path class="cls-2" d="m517.24,474.24c.46-.05.92-.11,1.38-.16,0,0-.67.22-.67.22l-.7-.05Z"/>
    <path class="cls-2" d="m713.02,180.05c-.47-.05-.94-.09-1.4-.13.48-.13.95-.08,1.4.13Z"/>
    <path class="cls-2" d="m693.12,175.45c-.47-.04-.94-.08-1.4-.12.48-.13.95-.09,1.4.12Z"/>
    <path class="cls-2" d="m686.98,174c-.46-.05-.92-.11-1.38-.16.48-.13.94-.08,1.38.16Z"/>
    <path class="cls-2" d="m639.58,172.3c-.48-.01-.96-.02-1.43-.03.48-.13.96-.12,1.43.03Z"/>
    <path class="cls-2" d="m631.89,170.92c-.46-.04-.92-.08-1.38-.12.48-.14.94-.1,1.38.12Z"/>
    <path class="cls-2" d="m622.71,169.38c-.46-.04-.92-.07-1.38-.11.47-.14.94-.11,1.38.11Z"/>
    <path class="cls-4" d="m485,169.25c-.47.03-.95.06-1.42.09.46-.2.94-.23,1.42-.09Z"/>
    <path class="cls-2" d="m610.48,167.81c-.47-.03-.93-.06-1.4-.09.48-.13.95-.1,1.4.09Z"/>
    <path class="cls-2" d="m891.77,324.71c-.12-.33-.28-.66-.33-1.01-.01-.1.29-.25.45-.37.14.48.1.94-.12,1.38Z"/>
    <path class="cls-8" d="m665.55,339.99c-11.97,5.25-24.25,9.92-35.86,15.87-30.16,15.47-60.74,29.54-93.82,37.94-16.27,4.13-32.24,8.8-49.25,7.66-.54-.04-1.08-.08-1.62-.11-21.26-6.57-42.59-12.9-63.74-19.8-12.53-4.09-24.69-9.33-37.18-13.56-5.6-1.9-7.16-5.44-6.07-10.49,1.22-5.6,6-6.33,10.27-5.1,7.27,2.1,14.29,5.1,21.34,7.93,23.99,9.64,47.85,19.59,71.98,28.88,5.27,2.03,11.43,1.77,17.17,2.56.54-.02,1.09-.05,1.63-.07,31.98-11.27,64.3-21.64,95.8-34.11,21.32-8.43,41.33-20.1,62.24-29.64,4.64-2.11,10.74-2.39,15.9-1.66,7.96,1.12,9,5.8,3.58,12.38-.54.05-1.07.11-1.61.16-1,0-2.01,0-3.01,0-2.59.38-5.17.77-7.76,1.15Z"/>
    <path class="cls-8" d="m661.33,231.66c-.02,3.02-.04,6.05-.06,9.07-.01.54-.02,1.08-.03,1.62-2.18,9.26-4.2,18.57-6.61,27.77-1.41,5.4-5.82,8.63-10.81,6.9-3.09-1.07-7.24-6.19-6.85-8.91,1.32-9.08,4.57-17.87,6.88-26.82.81-3.14,1.08-6.42,1.6-9.63.05-.54.11-1.07.16-1.61,3.64-6.62,9.82-6.62,15.57,0,.05.54.1,1.07.14,1.61Z"/>
    <path class="cls-8" d="m434.21,240.36c-1.51,2.98-2.63,4.9-3.48,6.93-2.91,6.96-5.9,13.89-8.52,20.95-1.79,4.85-4.73,8.13-10.04,7.47-5.58-.69-9.83-5.16-7.91-10.01,4.22-10.66,9.9-20.8,15.78-30.68,1-1.69,6.27-2.05,8.95-1.17,2.19.72,3.48,4.2,5.21,6.5Z"/>
    <path class="cls-5" d="m665.55,339.99c2.59-.39,5.17-.77,7.76-1.15-2.59.39-5.17.77-7.76,1.15Z"/>
    <path class="cls-5" d="m676.32,338.84c.54-.05,1.07-.11,1.61-.16-.54.05-1.07.11-1.61.16Z"/>
    <path class="cls-5" d="m500.4,391.7c-.54.02-1.09.05-1.63.07.54-.03,1.09-.05,1.63-.07Z"/>
    <path class="cls-5" d="m485,401.36c.54.04,1.08.07,1.62.11-.54-.04-1.08-.07-1.62-.11Z"/>
    <path class="cls-5" d="m661.24,242.35c0-.54.02-1.08.03-1.62.17.38.38.75.46,1.15.02.12-.32.31-.49.47Z"/>
    <path class="cls-5" d="m661.33,231.66c-.05-.54-.1-1.07-.14-1.61.21.36.46.71.59,1.1.04.11-.29.33-.45.51Z"/>
    <path class="cls-5" d="m645.62,230.05c-.05.54-.11,1.07-.16,1.61-.13-.39-.31-.77-.36-1.17-.01-.12.34-.29.52-.44Z"/>
    <path class="cls-8" d="m650.83,505.61c2.1-1.89,4.5-5.56,7.72-6.56,4.73-1.46,7.62,1.46,9.04,6.63,5.6,20.4,11.78,40.64,17.46,61.03,1.39,5,1.7,10.74-4.72,12.71-6.22,1.91-8.7-1.82-10.5-7.66-4.18-13.49-9.68-26.57-13.86-40.07-2.37-7.67-3.18-15.82-5.14-26.08Z"/>
    <path class="cls-8" d="m542.97,509.24c0-2.54-.07-5.08.01-7.62.16-4.91,2.77-7.43,7.69-7.49,4.82-.06,7.29,2.2,8.11,7.12,2.78,16.65,5.79,33.26,8.91,49.85.55,2.92,1.8,5.77,3.1,8.48,2.44,5.08,2.35,9.48-3.26,12.11-4.77,2.24-10.33-1.2-11.99-7.26-3.66-13.38-7.33-26.75-10.71-40.2-1.22-4.86-1.63-9.93-2.41-14.91.18-.03.37-.06.55-.08Z"/>
    <path class="cls-8" d="m728.63,490.29c2.24-2.03,4.51-5.55,7.57-6.51,4.63-1.46,7.92.95,9.38,6.24,2.4,8.74,5.27,17.39,8.54,25.85,1.42,3.65,4.07,6.96,6.65,10,4.47,5.26,5.25,11.35,1.41,14.84-3.97,3.62-12.05,2.88-15.21-2.84-5.34-9.66-9.61-19.94-13.8-30.18-1.98-4.85-2.71-10.2-4.54-17.4Z"/>
  </g>
  <circle class="cls-1" cx="500" cy="500" r="500"/>
</svg>